<?xml version="1.0" standalone="no"?>
<!DOCTYPE svg PUBLIC "-//W3C//DTD SVG 20010904//EN"
 "http://www.w3.org/TR/2001/REC-SVG-20010904/DTD/svg10.dtd">
<svg version="1.0" xmlns="http://www.w3.org/2000/svg"
 width="1024.000000pt" height="1024.000000pt" viewBox="0 0 1024.000000 1024.000000"
 preserveAspectRatio="xMidYMid meet">

<g transform="translate(0.000000,1024.000000) scale(0.100000,-0.100000)"
fill="#000000" stroke="none">
<path d="M3190 8625 c-323 -44 -587 -180 -822 -423 -236 -243 -368 -541 -408
-919 -7 -66 -10 -724 -8 -1998 l3 -1900 29 -115 c70 -287 230 -555 445 -749
165 -148 324 -237 531 -297 190 -56 121 -54 2136 -54 1211 0 1889 4 1942 10
312 39 611 192 823 418 175 188 309 449 371 719 l22 98 4 1890 c2 1347 0 1922
-8 2000 -28 274 -134 546 -299 766 -210 280 -490 459 -851 545 -71 17 -185 18
-1945 20 -1494 2 -1889 -1 -1965 -11z m3484 -476 c216 -29 436 -147 548 -294
61 -80 136 -235 160 -332 l23 -88 0 -1950 0 -1950 -23 -69 c-95 -284 -343
-513 -630 -584 -60 -14 -216 -16 -1527 -19 -920 -3 -1510 0 -1595 6 -268 20
-432 91 -582 249 -78 83 -113 133 -161 228 -68 135 -70 149 -74 556 l-5 367
102 3 c94 3 101 2 105 -17 3 -11 6 -171 8 -355 4 -367 6 -383 69 -502 42 -79
175 -205 259 -246 146 -72 19 -67 1754 -67 1466 0 1564 1 1625 18 80 22 178
67 226 104 71 54 177 202 209 293 33 91 56 272 37 284 -5 3 -41 -48 -80 -112
-51 -86 -92 -138 -149 -193 -90 -87 -135 -116 -253 -159 -141 -52 -187 -54
-1598 -51 -1417 3 -1326 -2 -1470 68 -130 63 -267 220 -314 359 -21 63 -36
395 -24 526 l8 78 26 -8 c15 -4 57 -7 95 -7 67 0 67 0 72 -30 2 -16 6 -136 7
-265 4 -284 5 -290 130 -403 100 -91 129 -105 234 -118 110 -14 2555 -4 2666
10 142 18 257 100 382 271 62 84 111 126 213 181 25 13 32 25 36 60 4 24 7
807 8 1739 l2 1695 -35 102 c-44 127 -87 201 -157 264 -62 58 -194 125 -272
139 -55 10 -3208 20 -3210 10 -1 -3 -4 -124 -8 -270 l-6 -265 -90 4 c-49 2
-91 4 -93 6 -1 1 -5 113 -9 248 l-6 246 -41 -24 c-148 -88 -238 -228 -253
-395 l-8 -81 -95 -2 -95 -2 2 105 c2 124 30 227 89 324 65 107 148 178 291
250 125 62 164 68 503 75 478 10 2882 2 2974 -10z m942 -43 c74 -34 122 -113
111 -182 -8 -50 -53 -122 -90 -145 -40 -24 -135 -26 -183 -3 -18 9 -47 37 -65
63 -28 42 -30 51 -27 115 4 69 4 69 56 117 71 65 116 73 198 35z m-1715 -270
c514 -5 558 -9 663 -62 57 -29 167 -116 220 -174 41 -45 88 -135 106 -200 16
-56 15 -792 -1 -949 -12 -120 -30 -174 -88 -259 -134 -197 -286 -299 -472
-316 -127 -12 -1793 -7 -1850 5 -93 19 -202 83 -272 159 -77 83 -161 238 -176
325 -18 107 -22 314 -12 655 10 357 19 426 73 540 32 65 131 159 215 203 159
83 251 88 1594 73z m-2312 -572 c26 -14 55 -38 64 -54 34 -57 13 -136 -44
-165 -27 -15 -35 -15 -77 -1 -165 54 -483 58 -734 9 -139 -27 -197 2 -201 100
-1 33 4 51 18 67 55 61 102 66 594 68 l333 2 47 -26z m-243 -314 c5 -5 43 -11
84 -14 l75 -3 6 -74 c4 -41 7 -201 8 -355 l1 -281 -92 -6 c-51 -3 -95 -3 -98
0 -15 14 -25 528 -14 666 7 77 11 86 30 67z m-332 -94 c10 -139 7 -592 -4
-620 -9 -25 -12 -26 -99 -26 -84 0 -89 1 -95 23 -7 27 -8 702 -1 709 3 3 47 4
99 4 l93 -1 7 -89z m-210 -751 c68 -21 414 -21 550 0 132 20 235 20 264 -1 52
-36 68 -123 32 -182 -27 -44 -52 -51 -135 -39 -38 5 -205 10 -370 11 -295 1
-301 1 -336 -21 -42 -27 -88 -29 -130 -8 -89 47 -93 203 -6 240 41 18 71 18
131 0z m642 -350 l74 0 1 -370 c2 -411 -1 -626 -8 -638 -3 -4 -11 -3 -19 3 -8
7 -41 11 -86 8 l-73 -3 -6 39 c-9 53 -12 917 -3 961 6 35 7 36 26 18 16 -14
37 -18 94 -18z m-431 -20 c3 -16 4 -244 3 -505 l-3 -475 -90 -3 c-76 -2 -92 0
-102 14 -10 14 -13 129 -13 512 l0 494 100 -4 100 -3 5 -30z m3381 -275 c310
-80 577 -355 630 -651 24 -132 22 -288 -4 -383 -48 -167 -157 -338 -281 -440
-75 -61 -219 -134 -321 -163 -84 -23 -272 -22 -385 2 -236 50 -457 214 -575
430 -80 146 -92 188 -98 340 -7 216 26 358 117 498 104 159 233 267 398 334
114 46 143 51 304 52 106 1 153 -3 215 -19z m-1212 -91 c34 -40 33 -64 -3
-100 -35 -35 18 -32 -601 -29 -496 2 -518 4 -534 45 -12 33 -5 66 19 90 l24
25 535 0 534 0 26 -31z m-13 -387 c37 -42 37 -76 -1 -113 l-30 -30 -524 4
c-472 3 -527 5 -550 20 -33 22 -35 77 -6 125 l21 33 530 -3 531 -4 29 -32z
m-2146 -343 c157 -9 252 -9 374 0 146 9 167 9 199 -6 71 -34 93 -118 47 -185
-32 -48 -62 -53 -190 -33 -152 23 -305 28 -463 16 -139 -10 -145 -12 -178 -41
-51 -44 -92 -41 -149 11 -87 80 -83 183 8 240 25 16 43 19 87 15 30 -3 150
-10 265 -17z m1680 -29 l440 -10 28 -32 c15 -18 27 -41 27 -53 0 -30 -37 -84
-65 -95 -16 -6 -132 -6 -323 1 -163 6 -384 9 -491 6 -213 -6 -245 -1 -276 47
-22 33 -13 84 20 120 29 31 -5 30 640 16z m-2 -407 l458 -6 20 -25 c28 -37 25
-85 -10 -124 l-29 -33 -334 -3 c-183 -2 -419 1 -525 5 -183 8 -193 10 -217 32
-39 37 -37 102 5 143 30 30 32 31 102 25 40 -4 278 -10 530 -14z"/>
<path d="M7497 8049 c-50 -29 -64 -143 -23 -184 68 -67 166 -19 166 82 0 29
-15 59 -43 91 -22 24 -69 29 -100 11z"/>
<path d="M4601 7608 c-49 -13 -125 -71 -158 -121 -62 -93 -62 -94 -56 -649 l5
-503 31 -68 c19 -43 46 -82 74 -108 84 -77 50 -74 692 -77 516 -3 578 -1 624
14 65 22 134 89 172 169 26 55 29 73 34 200 3 77 4 318 1 535 -5 377 -6 397
-26 441 -31 66 -86 123 -147 150 l-52 24 -582 0 c-321 0 -596 -3 -612 -7z
m759 -223 c195 -52 332 -181 388 -367 47 -151 38 -280 -28 -414 -68 -140 -155
-218 -310 -276 -76 -28 -96 -32 -190 -31 -86 0 -120 5 -187 27 -142 46 -234
121 -311 252 -56 97 -72 158 -72 282 0 118 27 219 82 304 64 101 198 199 319
233 65 18 224 13 309 -10z"/>
<path d="M5120 7215 c-71 -20 -155 -77 -202 -139 -105 -140 -85 -371 44 -492
58 -54 111 -79 198 -93 190 -31 355 83 407 282 15 57 16 75 5 137 -23 133 -92
228 -205 281 -78 36 -170 45 -247 24z m146 -200 c86 -66 87 -183 2 -226 -55
-28 -119 -25 -158 7 -64 54 -77 124 -36 185 49 72 125 85 192 34z"/>
<path d="M6385 7343 c-247 -126 -290 -153 -288 -183 1 -14 7 -86 14 -160 13
-157 1 -334 -25 -372 -28 -40 -20 -54 67 -110 150 -98 375 -228 393 -228 10 0
28 9 40 21 l23 21 -6 332 c-4 216 -2 398 6 524 11 174 11 195 -3 217 -9 14
-24 25 -34 25 -10 0 -94 -39 -187 -87z"/>
<path d="M6085 5289 c-117 -15 -315 -128 -392 -226 -93 -117 -136 -245 -137
-403 0 -133 13 -190 71 -309 50 -101 129 -193 210 -244 152 -96 392 -134 536
-86 173 58 323 184 399 334 63 124 91 300 68 425 -45 246 -298 469 -577 510
-76 11 -81 11 -178 -1z m19 -254 c20 -14 65 -48 99 -76 64 -54 239 -171 340
-228 64 -36 92 -70 83 -99 -4 -11 -48 -47 -99 -80 -156 -101 -450 -272 -468
-272 -10 0 -30 11 -45 24 -28 23 -28 25 -36 187 -5 90 -7 242 -6 337 l3 174
33 29 c39 35 49 36 96 4z"/>
</g>
</svg>
